<?xml version="1.0" encoding="UTF-8"?>
<svg width="16px" height="16px" viewBox="0 0 16 16" version="1.1" xmlns="http://www.w3.org/2000/svg" xmlns:xlink="http://www.w3.org/1999/xlink">
    <!-- Generator: Sketch 51.3 (57544) - http://www.bohemiancoding.com/sketch -->
    <title>label icon</title>
    <desc>Created with Sketch.</desc>
    <defs></defs>
    <g id="Backend" stroke="none" stroke-width="1" fill="none" fill-rule="evenodd">
        <g id="annotation-type-dropdown-menu" transform="translate(-18.000000, -184.000000)" fill="#777777">
            <g id="dropdown" transform="translate(5.000000, 0.000000)">
                <path d="M13.015625,191.878707 L13.015625,185.50003 C13.015625,184.671602 13.6871932,184.000033 14.5156214,184.000033 L20.8942988,184.000033 C21.2372546,184.000033 21.7124426,184.196871 21.9549347,184.439363 L28.5762568,191.060685 C29.1620098,191.646438 29.1620098,192.596204 28.5762568,193.181988 L22.1975794,199.560665 C21.6117959,200.146418 20.6620301,200.146418 20.0762771,199.560665 L13.454955,192.939343 C13.2124629,192.696851 13.015625,192.221663 13.015625,191.878707 Z M16.5156167,186.000029 C15.6871885,186.000029 15.0156202,186.671597 15.0156202,187.500025 C15.0156202,188.328453 15.6871885,189.000021 16.5156167,189.000021 C17.3440449,189.000021 18.0156131,188.328453 18.0156131,187.500025 C18.0156131,186.671597 17.3440449,186.000029 16.5156167,186.000029 Z" id="label-icon"></path>
            </g>
        </g>
    </g>
</svg>