<?xml version="1.0" encoding="UTF-8"?>
<svg width="15px" height="14px" viewBox="0 0 15 14" version="1.1" xmlns="http://www.w3.org/2000/svg" xmlns:xlink="http://www.w3.org/1999/xlink">
    <!-- Generator: Sketch 51.3 (57544) - http://www.bohemiancoding.com/sketch -->
    <title>note icon</title>
    <desc>Created with Sketch.</desc>
    <defs></defs>
    <g id="Backend" stroke="none" stroke-width="1" fill="none" fill-rule="evenodd">
        <g id="annotation-type-dropdown-menu" transform="translate(-19.000000, -97.000000)" fill="#777777">
            <g id="dropdown" transform="translate(5.000000, 0.000000)">
                <path d="M23.7656018,106.00001 C23.3530966,106.00001 23.0156035,106.337503 23.0156035,106.750008 L23.0156035,110.999998 L14.7656232,110.999998 C14.3500053,110.999998 14.015625,110.665617 14.015625,110.249999 L14.015625,97.7500292 C14.015625,97.3344113 14.3500053,97.000031 14.7656232,97.000031 L27.2655934,97.000031 C27.6812113,97.000031 28.0155916,97.3344113 28.0155916,97.7500292 L28.0155916,106.00001 L23.7656018,106.00001 Z M27.7968421,107.718755 L24.7343494,110.781248 C24.5937248,110.921873 24.4031124,110.999998 24.2031007,110.999998 L24.0156012,110.999998 L24.0156012,107.000007 L28.0155916,107.000007 L28.0155916,107.190619 C28.0155916,107.387518 27.9374668,107.578131 27.7968421,107.718755 Z" id="note-icon"></path>
            </g>
        </g>
    </g>
</svg>