<?xml version="1.0" encoding="UTF-8"?>
<svg width="15px" height="15px" viewBox="0 0 15 15" version="1.1" xmlns="http://www.w3.org/2000/svg" xmlns:xlink="http://www.w3.org/1999/xlink">
    <!-- Generator: Sketch 51.3 (57544) - http://www.bohemiancoding.com/sketch -->
    <title>pause icon</title>
    <desc>Created with Sketch.</desc>
    <defs></defs>
    <g id="Backend" stroke="none" stroke-width="1" fill="none" fill-rule="evenodd">
        <g id="annotation-type-dropdown-menu" transform="translate(-19.000000, -212.000000)" fill="#777777">
            <g id="dropdown" transform="translate(5.000000, 0.000000)">
                <path d="M18.5156143,226.968748 L15.5156214,226.968748 C14.6874984,226.968748 14.015625,226.296874 14.015625,225.468751 L14.015625,214.468777 C14.015625,213.640654 14.6874984,212.968781 15.5156214,212.968781 L18.5156143,212.968781 C19.3437373,212.968781 20.0156107,213.640654 20.0156107,214.468777 L20.0156107,225.468751 C20.0156107,226.296874 19.3437373,226.968748 18.5156143,226.968748 Z M28.0155916,225.468751 C28.0155916,226.296874 27.3437182,226.968748 26.5155952,226.968748 L23.5156024,226.968748 C22.6874793,226.968748 22.0156059,226.296874 22.0156059,225.468751 L22.0156059,214.468777 C22.0156059,213.640654 22.6874793,212.968781 23.5156024,212.968781 L26.5155952,212.968781 C27.3437182,212.968781 28.0155916,213.640654 28.0155916,214.468777 L28.0155916,225.468751 Z" id="pause-icon"></path>
            </g>
        </g>
    </g>
</svg>