<?xml version="1.0" encoding="UTF-8"?>
<svg width="18px" height="16px" viewBox="0 0 18 16" version="1.1" xmlns="http://www.w3.org/2000/svg" xmlns:xlink="http://www.w3.org/1999/xlink">
    <!-- Generator: Sketch 51.3 (57544) - http://www.bohemiancoding.com/sketch -->
    <title>highlight icon</title>
    <desc>Created with Sketch.</desc>
    <defs></defs>
    <g id="Backend" stroke="none" stroke-width="1" fill="none" fill-rule="evenodd">
        <g id="annotation-type-dropdown-menu" transform="translate(-17.000000, -155.000000)" fill="#777777">
            <g id="dropdown" transform="translate(5.000000, 0.000000)">
                <path d="M12.515625,169.999387 L14.6509349,167.797183 L16.7459311,169.892179 L15.6381151,170.999995 L12.515625,169.999387 Z M16.4096892,162.499069 L17.7071715,161.391589 L23.1240287,166.808446 L22.0130999,168.109682 C21.7162256,168.44626 21.2499792,168.577821 20.8209031,168.446565 L19.4853044,168.037814 L17.8959222,169.627196 L14.8887578,166.620001 L16.4803067,165.028147 L16.0725013,163.68971 C16.0450966,163.599744 16.0228493,163.450453 16.0228493,163.356428 C16.0228493,163.071639 16.1961582,162.687546 16.4096892,162.499069 Z M29.0130832,157.4772 C29.6537067,158.117824 29.6859027,159.145653 29.0865083,159.825034 L23.7756079,166.045631 L18.4702922,160.74001 L24.6905838,155.428774 C25.3699645,154.829715 26.3977941,154.861911 27.0380818,155.502229 L29.0130832,157.4772 Z" id="highlight-icon"></path>
            </g>
        </g>
    </g>
</svg>