<?xml version="1.0" encoding="UTF-8"?>
<svg width="15px" height="14px" viewBox="0 0 15 14" version="1.1" xmlns="http://www.w3.org/2000/svg" xmlns:xlink="http://www.w3.org/1999/xlink">
    <!-- Generator: Sketch 51.3 (57544) - http://www.bohemiancoding.com/sketch -->
    <title>title icon</title>
    <desc>Created with Sketch.</desc>
    <defs></defs>
    <g id="Backend" stroke="none" stroke-width="1" fill="none" fill-rule="evenodd">
        <g id="annotation-type-dropdown-menu" transform="translate(-19.000000, -126.000000)" fill="#777777">
            <g id="dropdown" transform="translate(5.000000, 0.000000)">
                <path d="M27.5155928,138.000002 C27.7905861,138.000002 28.0155916,138.225008 28.0155916,138.500001 L28.0155916,139.499999 C28.0155916,139.774992 27.7905861,139.999998 27.5155928,139.999998 L23.2656029,139.999998 C22.9906097,139.999998 22.7656041,139.774992 22.7656041,139.499999 L22.7656041,138.500001 C22.7656041,138.225008 22.9906097,138.000002 23.2656029,138.000002 L23.9968634,138.000002 L23.1655971,135.475015 L18.8468513,135.475015 L18.0156155,138.000002 L18.7656137,138.000002 C19.0406069,138.000002 19.2656125,138.225008 19.2656125,138.500001 L19.2656125,139.499999 C19.2656125,139.774992 19.0406069,139.999998 18.7656137,139.999998 L14.5156238,139.999998 C14.2406306,139.999998 14.015625,139.774992 14.015625,139.499999 L14.015625,138.500001 C14.015625,138.225008 14.2406306,138.000002 14.5156238,138.000002 L15.3500029,138.000002 L19.4062371,126.334411 C19.4749931,126.1344 19.6656054,126.000031 19.8780988,126.000031 L22.1531178,126.000031 C22.3656112,126.000031 22.5562235,126.1344 22.6249795,126.334411 L26.6812137,138.000002 L27.5155928,138.000002 Z M19.4656242,133.384382 L22.5468547,133.384382 L21.2562388,129.509392 C21.1062453,129.034387 21.0406021,128.628138 21.0156083,128.425013 C20.9843584,128.625025 20.9124897,129.031274 20.7781211,129.506279 L19.4656242,133.384382 Z" id="title-icon"></path>
            </g>
        </g>
    </g>
</svg>